<?xml version="1.0" encoding="utf-8"?>
<!-- Generator: Adobe Illustrator 28.0.0, SVG Export Plug-In . SVG Version: 6.00 Build 0)  -->
<svg version="1.1" id="Layer_1" xmlns="http://www.w3.org/2000/svg" xmlns:xlink="http://www.w3.org/1999/xlink" x="0px" y="0px"
	 viewBox="0 0 24 24" style="enable-background:new 0 0 24 24;" xml:space="preserve">
<style type="text/css">
	.st0{fill:#FFFFFF;}
</style>
<path class="st0" d="M5,21c-0.6,0-1-0.2-1.4-0.6C3.2,20,3,19.5,3,19V5c0-0.6,0.2-1,0.6-1.4S4.4,3,5,3h14c0.5,0,1,0.2,1.4,0.6
	C20.8,4,21,4.4,21,5v14c0,0.5-0.2,1-0.6,1.4C20,20.8,19.5,21,19,21H5z M5,19h14V5H5V19z"/>
</svg>
