<svg width="20" height="20" viewBox="0 0 20 20" fill="none" xmlns="http://www.w3.org/2000/svg">
<g id="task_alt">
<mask id="mask0_1019_61" style="mask-type:alpha" maskUnits="userSpaceOnUse" x="0" y="0" width="20" height="20">
<rect id="Bounding box" width="20" height="20" fill="#D9D9D9"/>
</mask>
<g mask="url(#mask0_1019_61)">
<path id="task_alt_2" d="M9.99996 18.3334C8.84718 18.3334 7.76385 18.1146 6.74996 17.6771C5.73607 17.2396 4.85413 16.6459 4.10413 15.8959C3.35413 15.1459 2.76038 14.2639 2.32288 13.25C1.88538 12.2361 1.66663 11.1528 1.66663 10C1.66663 8.84724 1.88538 7.76391 2.32288 6.75002C2.76038 5.73613 3.35413 4.85419 4.10413 4.10419C4.85413 3.35419 5.73607 2.76044 6.74996 2.32294C7.76385 1.88544 8.84718 1.66669 9.99996 1.66669C10.9027 1.66669 11.7569 1.79863 12.5625 2.06252C13.368 2.32641 14.1111 2.69446 14.7916 3.16669L13.5833 4.39585C13.0555 4.06252 12.493 3.8021 11.8958 3.6146C11.2986 3.4271 10.6666 3.33335 9.99996 3.33335C8.15274 3.33335 6.57982 3.98266 5.28121 5.28127C3.9826 6.57988 3.33329 8.1528 3.33329 10C3.33329 11.8472 3.9826 13.4202 5.28121 14.7188C6.57982 16.0174 8.15274 16.6667 9.99996 16.6667C11.8472 16.6667 13.4201 16.0174 14.7187 14.7188C16.0173 13.4202 16.6666 11.8472 16.6666 10C16.6666 9.75002 16.6527 9.50002 16.625 9.25002C16.5972 9.00002 16.5555 8.75697 16.5 8.52085L17.8541 7.16669C18.0069 7.61113 18.125 8.06947 18.2083 8.54169C18.2916 9.01391 18.3333 9.50002 18.3333 10C18.3333 11.1528 18.1145 12.2361 17.677 13.25C17.2395 14.2639 16.6458 15.1459 15.8958 15.8959C15.1458 16.6459 14.2638 17.2396 13.25 17.6771C12.2361 18.1146 11.1527 18.3334 9.99996 18.3334ZM8.83329 13.8334L5.29163 10.2917L6.45829 9.12502L8.83329 11.5L17.1666 3.14585L18.3333 4.31252L8.83329 13.8334Z" fill="#566261"/>
</g>
</g>
</svg>
